<svg version="1" xmlns="http://www.w3.org/2000/svg" width="266.667" height="266.667" viewBox="0 0 200.000000 200.000000"><path d="M96.6 6.6C95.2 8 95 14.8 95 66.4v58.3l-2.4 1.3c-3 1.6-5.7 7.8-5 11.5 1.6 8.9 11.4 13.2 19.2 8.5 7.1-4.3 7.5-14.5.7-19.8l-2.5-2v-61l3.3.7c4.6 1 10.1.4 21.7-2.3 9.2-2.1 13.4-2.5 18.7-1.5 3.6.7 5.2.6 7-.6 2.3-1.5 2.3-1.6 2.3-22.8 0-11.6-.4-21.8-.8-22.5-1.2-1.8-6.9-3.2-13.7-3.3-6.4 0-7.4.2-19.7 3-6.6 1.6-17.2 2-18.4.8-.2-.2-.6-1.8-.8-3.5-.6-5.7-4.6-8-8-4.6zM148.5 35v14.5l-5.9.3c-3.3.1-10 1.2-15 2.3-8.6 2.1-12.1 2.4-19.3 2.1L105 54V24.5l7.7.2c5.3.1 10.9-.6 17.3-2.2 5.2-1.2 11.5-2.2 14-2.1l4.5.1V35z"/><path d="M80 80.3c-23.8 8.9-38.9 30.3-39 55.4 0 10 1.5 16.4 6.2 26.2C56.6 181.5 78 195 100 195c22 0 43.4-13.4 52.8-33.1 5.1-10.6 6.6-18.4 5.9-30.3-1.3-21.7-14.9-41.2-35-50-2.9-1.3-6.4-2.6-7.9-3-2.8-.6-2.8-.6-2.8 4.1l.1 4.8 8 3.8c9.9 4.7 18 12.5 22.5 21.8 4.4 8.8 5.6 14.1 5.5 23-.3 22.1-14.7 41-35.7 47.2-7.1 2.1-20 1.9-27.4-.3-29.4-8.9-43.6-41.1-30.3-68.9 5.5-11.6 16.8-21.3 29.6-25.5 1.3-.4 1.7-1.6 1.7-5 0-2.5-.3-4.7-.7-4.9-.5-.3-3.3.4-6.3 1.6z"/><path d="M81.9 105c-5 2.7-11.7 10.2-14.7 16.8-3.7 8-3.7 20.2 0 28.2 6.6 14.3 20.4 22.5 35.8 21.3 28.8-2.3 43-37 23.9-58.8-3.2-3.6-11.3-9.5-13.1-9.5-.4 0-.8 2.2-.8 4.8 0 4.3.4 5.2 4 8.6 13.5 12.8 11.2 32.9-4.8 42.4-6.3 3.6-17.4 3.9-23.9.4-16-8.4-19.4-28.9-6.8-41.5 2-2 4.1-3.7 4.6-3.7s.9-2.5.9-5.5-.3-5.5-.7-5.5c-.5.1-2.4.9-4.4 2z"/></svg>